# xmcd
#
# Track frame offsets:
#	150
#	600
#	22044
#	49211
#	84687
#	107781
#	132206
#	159134
#	183195
#	215098
#	250641
#	279990
#	305061
#
# Disc length: 4264 seconds
#
# Revision: 2
# Processed by: cddbd v1.5.2PL0 Copyright (c) Steve Scherf et al.
# Submitted via: audiograbber 1.83.01
#
DISCID=aa10a60d
DTITLE=Karin Alvtegen - Skam - Skam CD 07-08
DYEAR=2005
DGENRE=Book
TTITLE0=07.01
TTITLE1=07.02
TTITLE2=07.03
TTITLE3=07.04
TTITLE4=07.05
TTITLE5=07.06
TTITLE6=07.07
TTITLE7=07.08
TTITLE8=07.09
TTITLE9=07.10
TTITLE10=07.11
TTITLE11=07.12
TTITLE12=07.13
EXTD=
EXTT0=
EXTT1=
EXTT2=
EXTT3=
EXTT4=
EXTT5=
EXTT6=
EXTT7=
EXTT8=
EXTT9=
EXTT10=
EXTT11=
EXTT12=
PLAYORDER=
